<?xml version="1.0" standalone="no"?>
<svg version="1.1" id="Layer_1" xmlns="http://www.w3.org/2000/svg" xmlns:xlink="http://www.w3.org/1999/xlink" x="0px" y="0px" width="595.28px" height="595.28px" viewBox="0 0 595.28 595.28" enable-background="new 0 0 595.28 595.28" xml:space="preserve">
<path id="color_x5F_5" fill="#FFD2BB" d="M450.252,309.983c-1.52-0.9-3.085,4.763-3.354,5.786c-0.026,0.101-0.045,0.172-0.045,0.172
	s-0.013-0.072-0.029-0.173c-0.082-0.502-0.325-2.086-0.313-3.252c0.019-1.398-0.028-3.733-3.112-7.185
	c-1.042-1.165-1.258-2.789-1.1-4.429c-4.07-1.4-8.717-2.482-11.342-1.357c-5.377,2.311-5.626,8.685-5.626,8.685
	s-0.073-0.235-0.17-0.646l-0.09,7.568c-0.09,7.59,0.678,13.824,7.517,14.588l-3.25,9.453h0.748
	c1.121,4.567,4.726,8.427,10.823,8.427c5.602,0,9.095-3.261,10.494-7.333l0.527-17.164c0.251-0.395,0.49-0.797,0.702-1.215
	C452.634,321.909,453.012,311.617,450.252,309.983z M430.119,310.932c-0.092,0.816-0.567,1.433-1.071,1.375
	c-0.498-0.063-0.838-0.773-0.748-1.594c0.088-0.815,0.563-1.433,1.07-1.371C429.87,309.402,430.213,310.114,430.119,310.932z
	 M438.783,310.836c0.086-0.814,0.563-1.431,1.069-1.371c0.497,0.062,0.84,0.772,0.75,1.591c-0.096,0.816-0.567,1.434-1.074,1.374
	C439.032,312.37,438.692,311.658,438.783,310.836z M376.606,393.563c2.782,0.664,15.172,3.632,17.807,4.471
	c-0.391,0.892-0.46,1.258-0.091,0.902c-1.063,2.592-2.648,5.343-4.651,8.057c-1.175,1.591-2.492,3.164-3.945,4.688
	c-2.697,2.828-5.844,5.464-9.342,7.66c0.394,0.714,0.698,1.481,0.874,2.308c-0.127,0.21-0.246,0.426-0.35,0.651
	c-1.096,2.382-1.524,4.585-1.383,6.611c-0.117,0.156-0.248,0.305-0.375,0.456v-9.276v-2.465v-5.945v-4.688v-10.906
	C375.642,395.154,376.129,394.303,376.606,393.563z M394.413,398.034c0.193-0.441,0.464-1.01,0.802-1.687
	c-0.165,0.575-0.358,1.162-0.581,1.761C394.569,398.086,394.498,398.062,394.413,398.034z M419.295,436.058
	c-5.651,4.452-5.84,7.801-2.596,10.029c0.064,0.045,0.128,0.09,0.195,0.134c-2.478,2.113-6.11,5.106-7.353,5.677
	c-13.249,6.084-13.464-5.899-13.413-7.863c0.005-0.171,0.011-0.274,0.011-0.274C396.579,436.17,413.175,432.778,419.295,436.058z
	 M484.361,451.602c-2.083,5.702-6.952,6.156-11.916,4.344c-6.743-2.462-6.049-9.242-5.63-11.825
	c0.102-0.627,0.185-1.002,0.143-1.011c0.153-0.271,0.315-0.526,0.481-0.779c0.988-1.502,2.191-2.686,3.533-3.516
	c-1.207-4.115-1.984-7.819-1.984-7.819s-2.041-6.799-3.762-13.764c-1.387-5.617-2.565-11.342-2.294-13.692
	c0.029-0.25,0.076-0.489,0.122-0.729c0.01,0.071,0.021,0.145,0.03,0.215c6.035-1.923,12.368-2.998,18.7-3.897
	c0.004-0.096,0.006-0.193,0.01-0.289c0.698,5.106,1.114,11.92,1.184,18.839c0.068,6.771-0.195,13.631-0.851,19.086
	c-0.116,0.966-0.244,1.886-0.386,2.754c0.237,0.202,0.463,0.417,0.677,0.644C485.014,442.913,485.907,447.362,484.361,451.602z
	 M466.466,444.051c0.319-0.67,0.455-0.95,0.492-0.941C466.786,443.413,466.621,443.726,466.466,444.051z"></path>
<path id="color_x5F_4" fill="#f7ce3e" d="M394.413,398.034c0.085,0.027,0.156,0.052,0.221,0.074
	c0.188,0.066,0.295,0.114,0.278,0.136c-0.261,0.337-0.454,0.562-0.59,0.692C393.953,399.292,394.022,398.926,394.413,398.034z
	 M472.259,347.482c-3.247-3.896-14.806-6.807-18.646-7.686c-0.761-0.384-1.218-0.603-1.218-0.603h-0.662
	c-0.091,0.371-0.204,0.734-0.328,1.094c-1.399,4.072-4.893,7.333-10.494,7.333c-6.098,0-9.702-3.859-10.823-8.427h-0.748h-8.501
	l0.002-0.005c0,0-0.015,0.003-0.023,0.005h-0.321l-0.066,0.088c-0.825,0.191-2.821,0.689-5.243,1.539
	c-0.792,0.277-1.629,0.594-2.485,0.947c-2.072,0.855-4.254,1.939-6.179,3.271c-2.006,1.389-3.73,3.046-4.752,4.998
	c-4.043,7.722-25.727,43.392-25.727,43.392s0.207,0.05,0.563,0.134c2.782,0.664,15.172,3.632,17.807,4.471
	c0.193-0.441,0.464-1.01,0.802-1.687c2.273-4.554,7.485-13.867,11.307-20.616c2.564-4.529,4.503-7.904,4.503-7.904l0.159-0.464
	c0.304,1.667,0.838,3.508,1.517,5.472c3.034,8.783,8.881,20.004,9.208,28.965c0.261,7.119-1.847,13.119-4.113,17.445
	c3.088,0.652,6.083,1.338,8.959,2.037c4.044,0.984,7.853,1.996,11.337,2.979c0.845-0.381,1.654-0.708,2.4-0.953
	c6.815-2.236,12.721-3.816,17.84-4.88c-2.128-5.306-4.011-12.84-2.923-21.628c0.602-4.854,2.391-10.189,4.597-15.404
	c1.068,7.345,2.142,14.928,3.05,21.415c0.01,0.071,0.021,0.145,0.03,0.215c6.035-1.923,12.368-2.998,18.7-3.897
	c0.004-0.096,0.006-0.193,0.01-0.289C482.482,381.389,479.779,356.505,472.259,347.482z"></path>
<path id="color_x5F_3" fill="#c5c1c0" d="M123.18,146.089c0,1.524-1.237,2.762-2.763,2.762s-2.762-1.237-2.762-2.762
	c0-1.525,1.236-2.762,2.762-2.762S123.18,144.563,123.18,146.089z M129.959,143.327c-1.526,0-2.763,1.236-2.763,2.762
	c0,1.524,1.236,2.762,2.763,2.762c1.525,0,2.762-1.237,2.762-2.762C132.721,144.563,131.484,143.327,129.959,143.327z
	 M181.78,206.685c-0.399-0.225-0.854-0.363-1.345-0.363s-0.945,0.139-1.345,0.363c-0.733,0.412-1.254,1.142-1.378,2.008
	c-0.018,0.129-0.039,0.257-0.039,0.391c0,1.524,1.236,2.762,2.762,2.762s2.763-1.237,2.763-2.762c0-0.134-0.021-0.262-0.04-0.391
	C183.035,207.826,182.514,207.097,181.78,206.685z M191.322,206.685c-0.399-0.225-0.854-0.363-1.345-0.363s-0.946,0.139-1.345,0.363
	c-0.733,0.412-1.254,1.142-1.378,2.008c-0.018,0.129-0.039,0.257-0.039,0.391c0,1.524,1.236,2.762,2.763,2.762
	c1.525,0,2.762-1.237,2.762-2.762c0-0.134-0.021-0.262-0.039-0.391C192.576,207.826,192.055,207.097,191.322,206.685z
	 M241.799,269.679c-0.399-0.225-0.854-0.363-1.345-0.363s-0.945,0.139-1.345,0.363c-0.733,0.412-1.254,1.142-1.378,2.008
	c-0.018,0.129-0.039,0.257-0.039,0.391c0,1.524,1.236,2.762,2.762,2.762s2.763-1.237,2.763-2.762c0-0.134-0.021-0.262-0.04-0.391
	C243.054,270.82,242.532,270.091,241.799,269.679z M251.341,269.679c-0.399-0.225-0.854-0.363-1.345-0.363s-0.946,0.139-1.345,0.363
	c-0.733,0.412-1.254,1.142-1.378,2.008c-0.018,0.129-0.039,0.257-0.039,0.391c0,1.524,1.236,2.762,2.763,2.762
	c1.525,0,2.762-1.237,2.762-2.762c0-0.134-0.021-0.262-0.039-0.391C252.595,270.82,252.074,270.091,251.341,269.679z
	 M439.528,312.43c0.507,0.06,0.979-0.558,1.074-1.374c0.09-0.818-0.253-1.529-0.75-1.591c-0.507-0.06-0.983,0.557-1.069,1.371
	C438.692,311.658,439.032,312.37,439.528,312.43z M429.048,312.307c0.504,0.058,0.979-0.559,1.071-1.375
	c0.094-0.817-0.249-1.529-0.749-1.59c-0.507-0.062-0.982,0.556-1.07,1.371C428.21,311.533,428.55,312.243,429.048,312.307z
	 M482.979,417.678c0.068,6.771-0.195,13.631-0.851,19.086c4.712-3.318,8.11-7.3,9.361-11.956
	C491.489,424.808,490.822,419.915,482.979,417.678z M465.227,417.231c-2.124,0.289-4.415,0.681-6.896,1.196
	c-5.119,1.063-11.024,2.644-17.84,4.88c-0.746,0.245-1.556,0.572-2.4,0.953c-3.484-0.982-7.293-1.994-11.337-2.979
	c-2.876-0.699-5.871-1.385-8.959-2.037c-0.977-0.207-1.959-0.41-2.952-0.609c5.621,1.124-31.008-7.936-37.585,3.013
	c-0.127,0.21-0.246,0.426-0.35,0.651c-1.096,2.382-1.524,4.585-1.383,6.611c0.522,7.473,8.856,12.525,20.604,15.123
	c0.005-0.171,0.011-0.274,0.011-0.274c0.439-7.59,17.035-10.981,23.155-7.702c-5.651,4.452-5.84,7.801-2.596,10.029
	c0.064,0.045,0.128,0.09,0.195,0.134c7.404,4.78,31.095,4.17,49.921-2.101c0.102-0.627,0.185-1.002,0.143-1.011
	c-0.172,0.304-0.337,0.616-0.492,0.941c0.319-0.67,0.455-0.95,0.492-0.941c0.153-0.271,0.315-0.526,0.481-0.779
	c0.988-1.502,2.191-2.686,3.533-3.516c-1.207-4.115-1.984-7.819-1.984-7.819S466.947,424.196,465.227,417.231z M389.448,445.291
	h-15.803c0.924-0.998,1.505-2.395,1.505-3.949v-11.975v-9.276v-2.465v-5.945v-4.688v-10.906v-4.353c0-3.029-2.184-5.486-4.875-5.486
	h-85.628c-2.691,0-4.875,2.457-4.875,5.486v15.259v4.688v29.661c0,0.675,0.114,1.319,0.312,1.916c0.512,0.72,0.973,1.476,1.4,2.253
	c0.852,0.819,1.955,1.317,3.163,1.317h0.191c-0.181,0.341-0.29,0.717-0.29,1.117c0,1.467,1.355,2.653,3.026,2.653h101.873
	c1.672,0,3.026-1.187,3.026-2.653C392.475,446.48,391.12,445.291,389.448,445.291z"></path>
<path id="color_x5F_2" fill="#000000" d="M113.387,146.089c0,1.524-1.236,2.762-2.762,2.762s-2.762-1.237-2.762-2.762
	c0-1.525,1.236-2.762,2.762-2.762S113.387,144.563,113.387,146.089z M171.988,206.685c-0.399-0.225-0.854-0.363-1.345-0.363
	s-0.945,0.139-1.345,0.363c-0.733,0.412-1.254,1.142-1.378,2.008c-0.018,0.129-0.039,0.257-0.039,0.391
	c0,1.524,1.236,2.762,2.762,2.762s2.762-1.237,2.762-2.762c0-0.134-0.021-0.262-0.039-0.391
	C173.242,207.826,172.721,207.097,171.988,206.685z M232.007,269.679c-0.399-0.225-0.854-0.363-1.345-0.363
	s-0.945,0.139-1.345,0.363c-0.733,0.412-1.254,1.142-1.378,2.008c-0.018,0.129-0.039,0.257-0.039,0.391
	c0,1.524,1.236,2.762,2.762,2.762s2.762-1.237,2.762-2.762c0-0.134-0.021-0.262-0.039-0.391
	C233.261,270.82,232.74,270.091,232.007,269.679z M462.933,403.539c0.029-0.25,0.076-0.489,0.122-0.729
	c-0.908-6.487-1.981-14.07-3.05-21.415c-2.206,5.215-3.995,10.55-4.597,15.404c-1.088,8.788,0.795,16.322,2.923,21.628
	c2.48-0.516,4.771-0.907,6.896-1.196C463.84,411.614,462.661,405.89,462.933,403.539z M506.242,381.967
	c-15-8-12.959-9.592-11.334-15.334c1.549-5.474,6.667-13.333,2-22.666c-7.991-15.98-18.541-12.545-22.666-16.667
	c-1.334-1.333-13.334-1.5-10.834-19s-25.5-18.5-25.5-18.5l-0.168,0.096c-1.895-0.266-3.524-0.246-4.612,0.239
	c-8.552,3.808-8.812,11.568-8.3,15.575c-0.875,3.872-2.15,8.039-3.92,10.59c-11.454,16.52-6.863,20.91-5.723,24.521
	c2.422-0.85,4.418-1.348,5.243-1.539l0.066-0.088h0.321c0.009-0.002,0.023-0.005,0.023-0.005l-0.002,0.005h8.501l3.25-9.453
	c-6.839-0.764-7.606-6.998-7.517-14.588l0.09-7.568c0.097,0.41,0.17,0.646,0.17,0.646s0.249-6.374,5.626-8.685
	c2.625-1.125,7.271-0.043,11.342,1.357c-0.158,1.64,0.058,3.264,1.1,4.429c3.084,3.451,3.131,5.786,3.112,7.185
	c-0.013,1.166,0.23,2.75,0.313,3.252c0.017,0.101,0.029,0.173,0.029,0.173s0.019-0.071,0.045-0.172
	c0.269-1.023,1.834-6.687,3.354-5.786c2.76,1.634,2.382,11.926,2.382,11.926c-0.212,0.418-0.451,0.82-0.702,1.215l-0.527,17.164
	c0.124-0.359,0.237-0.723,0.328-1.094h0.662c0,0,0.457,0.219,1.218,0.603c3.841,0.879,15.399,3.79,18.646,7.686
	c7.521,9.022,10.224,33.906,9.536,51.356c0.698,5.106,1.114,11.92,1.184,18.839c7.844,2.237,8.511,7.13,8.511,7.13
	c-1.251,4.656-4.649,8.638-9.361,11.956c-0.116,0.966-0.244,1.886-0.386,2.754c0.237,0.202,0.463,0.417,0.677,0.644
	c9.938-1.795,18.838-4.257,23.823-7.528C522.242,422.133,521.242,389.967,506.242,381.967z"></path>
<path id="color_x5F_1" fill="#1a2930" d="M162.433,186.263c0-1.664,1.349-3.014,3.013-3.014h60.262c1.663,0,3.013,1.35,3.013,3.014
	s-1.35,3.013-3.013,3.013h-60.262C163.781,189.275,162.433,187.927,162.433,186.263z M352.682,264.377H412.7v77.392
	c-2.072,0.855-4.254,1.939-6.179,3.271v-65.264h-53.84h-6.179h-53.84h-6.179h-61.78v1.229v4.688v0.055v2.01v6.025v2.009v6.026v2.009
	v40.173v4.688v58.307h55.068v4.688h-61.246v-62.994h-40.417c-0.272,12.812,1.634,10.202,5.776,30.846
	c2.953,14.705-5.648,24.428-11.423,29.124c0.205-7.085,0.18-14.169-0.016-21.248c0.048-0.05,0.098-0.085,0.136-0.153
	c1.64-2.941,3.449-5.803,4.328-9.09c0.255-0.963-1.22-1.437-1.478-0.471c-0.65,2.438-1.835,4.624-3.066,6.797
	c-0.405-11.963-1.328-23.906-2.627-35.805h-1.551c1.061,9.707,1.867,19.438,2.351,29.188c-2.488-4.256-4.611-8.72-7.575-12.685
	c-0.594-0.804-1.732,0.258-1.139,1.052c3.051,4.091,5.169,8.751,7.785,13.114c0.24,0.406,0.676,0.449,1.011,0.299
	c0.451,9.92,0.573,19.852,0.258,29.782c0.248,0.84,0.427,1.71,0.573,2.573c3.57-2.467,7.902-3.933,12.593-3.933
	c2.02,0,3.975,0.275,5.835,0.776c1.857-0.501,3.815-0.776,5.838-0.776c11.511,0,20.948,8.722,21.922,19.829
	c2.476-5.47,8.016-9.29,14.479-9.29c8.749,0,15.847,7.005,15.847,15.636c0,1.262-0.166,2.484-0.451,3.652
	c2.946-2.112,6.406-3.563,10.166-4.12c1.124-0.168,2.271-0.265,3.445-0.265c0.385,0,0.769,0.012,1.151,0.029
	c7.368,0.356,13.822,4.113,17.806,9.708c0.512,0.72,0.973,1.476,1.4,2.253c1.042,1.896,1.836,3.942,2.303,6.113H95.977
	c2.143-9.98,10.877-17.561,21.507-18.074c0.383-0.018,0.764-0.029,1.151-0.029c1.175,0,2.318,0.097,3.445,0.265
	c3.76,0.558,7.22,2.008,10.166,4.12c-0.288-1.168-0.453-2.391-0.453-3.652c0-1.51,0.229-2.965,0.634-4.347
	c-0.244-0.06-0.476-0.101-0.724-0.167c-11.621-3.096-18.135-10.629-30.241-9.95c-12.11,0.673-25.721-4.424-23.884-12.55
	c1.841-8.123,13.88-5.968,26.355-3.234c12.479,2.734,9.558,0.546,28.412,0.258c12.857-0.195,19.709,8.574,22.771,14.174
	c-5.941-1.279-11.916-2.36-17.914-3.302c-0.033-0.047-0.061-0.095-0.11-0.14c-2.226-1.84-4.356-3.813-6.987-5.064
	c-0.773-0.365-1.404,0.806-0.628,1.177c1.955,0.926,3.612,2.263,5.249,3.64c-12.662-1.897-25.435-3.127-38.222-3.878
	c-0.852-0.05-0.786,1.276,0.063,1.327c10.798,0.633,21.582,1.625,32.299,3.062c-3.978,1.435-8.065,2.53-11.876,4.405
	c-0.771,0.379-0.053,1.505,0.709,1.127c3.923-1.936,8.184-2.991,12.271-4.521c0.38-0.137,0.482-0.495,0.41-0.803
	c8.56,1.184,17.078,2.65,25.521,4.501c0.242,0.501,0.439,0.945,0.606,1.338c0.517,0.346,1.01,0.722,1.48,1.124
	c1.63,0.477,3.246,1,4.851,1.559c0.29-1.031,0.67-2.023,1.104-2.986c-6.982-9.968-11.625-21.335-17.561-32.004
	c-0.146,0.261-0.235,0.4-0.235,0.4s-1.473,0.128-3.795-0.002c-5.766-8.271-11.147-16.798-16.242-25.494
	c0.363-0.058,0.701-0.33,0.684-0.804c-0.178-5.079-0.941-10.142-0.608-15.237c0.064-0.986-1.462-1.26-1.527-0.261
	c-0.325,4.938,0.32,9.838,0.551,14.765c-6.333-10.91-12.209-22.087-17.714-33.442c-0.434-0.892-1.896-0.37-1.46,0.53
	c6.517,13.438,13.541,26.653,21.241,39.456c-2.218-1.151-4.403-2.343-6.271-4.033c-0.741-0.671-1.725,0.528-0.981,1.199
	c2.521,2.28,5.601,3.692,8.577,5.27c0.064,0.035,0.13,0.04,0.192,0.056c3.695,6.043,7.527,12.003,11.556,17.831
	c-7.4-0.802-19.907-4.269-25.435-18.212c-8.105-20.445-4.446-18.274-12.958-30.501c-8.514-12.224-16.212-24.235-8.274-29.843
	c7.935-5.607,19.5,6.784,24.177,20.135c4.676,13.35,15.698,17.008,24.223,28.147c9.024,11.794,7.478,21.874,5.688,26.946
	c6.113,10.686,10.769,22.195,17.64,32.352c1.026-1.61,2.257-3.079,3.662-4.367c-0.106-0.842-0.231-1.686-0.423-2.498
	c-0.601,0.368-0.956,0.559-0.956,0.559s-14.82-6.421-13.163-27.747c1.055-13.55,7.896-22.477,5.288-35.515h-1.309v-7.147
	c-0.389-3.495-0.392-6.996,0-10.21v-45.637H98.489V138.389h194.174v62.994h60.019V264.377z M162.285,426.684
	c-0.333-0.118-0.667-0.238-1.002-0.353c0.305,0.509,0.589,1.031,0.835,1.576C162.154,427.493,162.226,427.091,162.285,426.684z
	 M127.196,146.089c0,1.524,1.236,2.762,2.763,2.762c1.525,0,2.762-1.237,2.762-2.762c0-1.525-1.236-2.762-2.762-2.762
	C128.433,143.327,127.196,144.563,127.196,146.089z M117.655,146.089c0,1.524,1.236,2.762,2.762,2.762s2.763-1.237,2.763-2.762
	c0-1.525-1.237-2.762-2.763-2.762S117.655,144.563,117.655,146.089z M107.863,146.089c0,1.524,1.236,2.762,2.762,2.762
	s2.762-1.237,2.762-2.762c0-1.525-1.236-2.762-2.762-2.762S107.863,144.563,107.863,146.089z M158.508,281.005v-40.173h-19.176
	c-0.555,0-1.004-0.45-1.004-1.005s0.449-1.004,1.004-1.004h19.176v-6.026h-19.176c-0.555,0-1.004-0.45-1.004-1.005
	c0-0.554,0.449-1.004,1.004-1.004h19.176v-6.025h-19.176c-0.555,0-1.004-0.45-1.004-1.005s0.449-1.005,1.004-1.005h19.176v-6.025
	h-19.176c-0.555,0-1.004-0.45-1.004-1.004c0-0.555,0.449-1.005,1.004-1.005h19.176v-6.026h-19.176c-0.555,0-1.004-0.449-1.004-1.004
	s0.449-1.004,1.004-1.004h19.176v-5.302h127.977v-47.595H104.667v127.217H158.508z M167.882,209.083
	c0,1.524,1.236,2.762,2.762,2.762s2.762-1.237,2.762-2.762c0-0.134-0.021-0.262-0.039-0.391c-0.124-0.866-0.645-1.596-1.378-2.008
	c-0.399-0.225-0.854-0.363-1.345-0.363s-0.945,0.139-1.345,0.363c-0.733,0.412-1.254,1.142-1.378,2.008
	C167.903,208.821,167.882,208.949,167.882,209.083z M191.322,206.685c-0.399-0.225-0.854-0.363-1.345-0.363
	s-0.946,0.139-1.345,0.363c-0.733,0.412-1.254,1.142-1.378,2.008c-0.018,0.129-0.039,0.257-0.039,0.391
	c0,1.524,1.236,2.762,2.763,2.762c1.525,0,2.762-1.237,2.762-2.762c0-0.134-0.021-0.262-0.039-0.391
	C192.576,207.826,192.055,207.097,191.322,206.685z M181.78,206.685c-0.399-0.225-0.854-0.363-1.345-0.363s-0.945,0.139-1.345,0.363
	c-0.733,0.412-1.254,1.142-1.378,2.008c-0.018,0.129-0.039,0.257-0.039,0.391c0,1.524,1.236,2.762,2.762,2.762
	s2.763-1.237,2.763-2.762c0-0.134-0.021-0.262-0.04-0.391C183.035,207.826,182.514,207.097,181.78,206.685z M169.21,343.999
	c-0.163-1.39-0.327-2.779-0.5-4.168c-0.125-0.991-1.632-0.631-1.51,0.351c0.159,1.271,0.294,2.545,0.444,3.817H169.21z
	 M227.9,272.077c0,1.524,1.236,2.762,2.762,2.762s2.762-1.237,2.762-2.762c0-0.134-0.021-0.262-0.039-0.391
	c-0.124-0.866-0.645-1.596-1.378-2.008c-0.399-0.225-0.854-0.363-1.345-0.363s-0.945,0.139-1.345,0.363
	c-0.733,0.412-1.254,1.142-1.378,2.008C227.921,271.815,227.9,271.943,227.9,272.077z M251.341,269.679
	c-0.399-0.225-0.854-0.363-1.345-0.363s-0.946,0.139-1.345,0.363c-0.733,0.412-1.254,1.142-1.378,2.008
	c-0.018,0.129-0.039,0.257-0.039,0.391c0,1.524,1.236,2.762,2.763,2.762c1.525,0,2.762-1.237,2.762-2.762
	c0-0.134-0.021-0.262-0.039-0.391C252.595,270.82,252.074,270.091,251.341,269.679z M241.799,269.679
	c-0.399-0.225-0.854-0.363-1.345-0.363s-0.945,0.139-1.345,0.363c-0.733,0.412-1.254,1.142-1.378,2.008
	c-0.018,0.129-0.039,0.257-0.039,0.391c0,1.524,1.236,2.762,2.762,2.762s2.763-1.237,2.763-2.762c0-0.134-0.021-0.262-0.04-0.391
	C243.054,270.82,242.532,270.091,241.799,269.679z M346.503,264.377v-47.595h-53.84h-6.179H164.686v5.971v2.01v6.025v2.009v6.026
	v2.009v40.173v4.688v32.729c1.217-0.742,2.604-1.13,4.17-1.068c9.078,0.36,9.739,12.851,9.387,26.646h40.284v-40.173h-19.176
	c-0.555,0-1.004-0.45-1.004-1.005s0.449-1.004,1.004-1.004h19.176v-6.026h-19.176c-0.555,0-1.004-0.45-1.004-1.005
	c0-0.554,0.449-1.004,1.004-1.004h19.176v-6.025h-19.176c-0.555,0-1.004-0.45-1.004-1.005s0.449-1.005,1.004-1.005h19.176v-0.055
	v-4.688v-1.283h-19.176c-0.555,0-1.004-0.45-1.004-1.004c0-0.555,0.449-1.005,1.004-1.005h19.176v-6.026h-19.176
	c-0.555,0-1.004-0.449-1.004-1.004s0.449-1.004,1.004-1.004h19.176v-5.302h67.958h6.179H346.503z M286.484,246.352
	c-0.244-0.063-0.495-0.108-0.759-0.108h-60.262c-0.236,0-0.463,0.033-0.684,0.085h-48.029c-1.51,0-2.734,1.225-2.734,2.734
	s1.225,2.734,2.734,2.734h47.105c0.466,0.296,1.015,0.473,1.607,0.473h60.262c0.264,0,0.515-0.045,0.759-0.108
	c1.294-0.338,2.254-1.504,2.254-2.904S287.778,246.69,286.484,246.352z M411.024,367.827c0,0-1.938,3.375-4.503,7.904v31.262
	h-16.851c-1.175,1.591-2.492,3.164-3.945,4.688H412.7v-38.846c-0.679-1.964-1.213-3.805-1.517-5.472L411.024,367.827z
	 M345.744,315.264c0.264,0,0.515-0.045,0.759-0.108c1.294-0.338,2.254-1.504,2.254-2.904s-0.96-2.566-2.254-2.905
	c-0.244-0.063-0.495-0.108-0.759-0.108h-60.262c-1.664,0-3.013,1.35-3.013,3.014s1.349,3.013,3.013,3.013H345.744z M371.857,332.673
	h-19.176h-6.179h-87.134c-0.555,0-1.004,0.449-1.004,1.004s0.449,1.004,1.004,1.004h87.134h6.179h19.176
	c0.554,0,1.004-0.449,1.004-1.004S372.411,332.673,371.857,332.673z M371.857,340.707h-19.176h-6.179h-87.134
	c-0.555,0-1.004,0.45-1.004,1.005c0,0.554,0.449,1.004,1.004,1.004h87.134h6.179h19.176c0.554,0,1.004-0.45,1.004-1.004
	C372.861,341.157,372.411,340.707,371.857,340.707z M371.857,348.741H259.369c-0.555,0-1.004,0.45-1.004,1.005
	s0.449,1.005,1.004,1.005h112.488c0.554,0,1.004-0.45,1.004-1.005S372.411,348.741,371.857,348.741z M371.857,356.776H259.369
	c-0.555,0-1.004,0.45-1.004,1.004c0,0.555,0.449,1.005,1.004,1.005h112.488c0.554,0,1.004-0.45,1.004-1.005
	C372.861,357.227,372.411,356.776,371.857,356.776z M371.857,364.812H259.369c-0.555,0-1.004,0.449-1.004,1.004
	s0.449,1.005,1.004,1.005h112.488c0.554,0,1.004-0.45,1.004-1.005S372.411,364.812,371.857,364.812z M413.501,184.296
	c-0.673,0-1.22,0.529-1.22,1.182v10.535c0,0.652,0.547,1.18,1.22,1.18c0.674,0,1.221-0.527,1.221-1.18v-10.535
	C414.722,184.825,414.175,184.296,413.501,184.296z M413.501,215.886c-0.673,0-1.22,0.527-1.22,1.182v10.531
	c0,0.652,0.547,1.182,1.22,1.182c0.674,0,1.221-0.529,1.221-1.182v-10.531C414.722,216.413,414.175,215.886,413.501,215.886z
	 M391.754,207.722h10.877c0.674,0,1.22-0.529,1.22-1.184c0-0.652-0.546-1.182-1.22-1.182h-10.877c-0.674,0-1.221,0.529-1.221,1.182
	C390.533,207.192,391.08,207.722,391.754,207.722z M435.248,205.356h-10.876c-0.674,0-1.22,0.529-1.22,1.182
	c0,0.654,0.546,1.184,1.22,1.184h10.876c0.674,0,1.221-0.529,1.221-1.184C436.469,205.886,435.922,205.356,435.248,205.356z
	 M404.952,199.931c0.476,0.461,1.248,0.461,1.726,0c0.477-0.463,0.477-1.209,0-1.672l-7.691-7.447c-0.477-0.463-1.248-0.463-1.725,0
	c-0.479,0.461-0.479,1.209,0,1.67L404.952,199.931z M422.051,213.147c-0.477-0.461-1.248-0.461-1.727,0
	c-0.477,0.461-0.477,1.209,0,1.67l7.691,7.449c0.477,0.461,1.249,0.461,1.725,0c0.477-0.463,0.477-1.209,0-1.674L422.051,213.147z
	 M404.952,213.147l-7.69,7.445c-0.479,0.465-0.479,1.211,0,1.674c0.477,0.461,1.248,0.461,1.725,0l7.691-7.449
	c0.477-0.461,0.477-1.209,0-1.67C406.2,212.687,405.428,212.687,404.952,213.147z M422.051,199.931l7.689-7.449
	c0.477-0.461,0.477-1.209,0-1.67c-0.476-0.463-1.248-0.463-1.725,0l-7.691,7.447c-0.477,0.463-0.477,1.209,0,1.672
	C420.803,200.392,421.574,200.392,422.051,199.931z"></path>
</svg>